<?xml version="1.0" encoding="UTF-8" standalone="no"?>
<svg width="150px" height="50px" viewBox="0 0 150 50" version="1.1" xmlns="http://www.w3.org/2000/svg" xmlns:xlink="http://www.w3.org/1999/xlink">
    <!-- Generator: Sketch 39.1 (31720) - http://www.bohemiancoding.com/sketch -->
    <title>Artboard Copy</title>
    <desc>Created with Sketch.</desc>
    <defs></defs>
    <g id="Page-1" stroke="none" stroke-width="1" fill="none" fill-rule="evenodd">
        <g id="Artboard-Copy" fill="#FFFFFF">
            <path d="M24,20.3710555 L25.6717127,20.3710555 L28.3005129,24.640914 L30.9293131,20.3710555 L32.6010259,20.3710555 L28.9896159,25.9727965 L28.9896159,29.6942329 L27.61141,29.6942329 L27.61141,25.9727965 L24,20.3710555 Z M33.4305017,22.9434168 L34.7831853,22.9434168 L34.7831853,27.0565832 C34.7831853,27.6398288 34.9022883,28.0576701 35.1404979,28.3101197 C35.3787076,28.5799796 35.757285,28.7149075 36.2762417,28.7149075 C36.6165412,28.7149075 36.9440745,28.566922 37.2588515,28.2709467 C37.565121,27.9662662 37.777805,27.5658349 37.8969098,27.0696409 L37.8969098,22.9434168 L39.2495934,22.9434168 L39.2495934,29.6942329 L37.8969098,29.6942329 L37.8969098,28.7801959 C37.3354157,29.5114291 36.6420659,29.8770403 35.8168397,29.8770403 C34.2259397,29.8770403 33.4305017,28.9673649 33.4305017,27.1479869 L33.4305017,22.9434168 Z M40.9213061,20.3710555 L42.2995121,20.3710555 L42.2995121,28.4798694 L47.3146503,28.4798694 L47.3146503,29.6942329 L40.9213061,29.6942329 L40.9213061,20.3710555 Z M53.593144,23.8835691 C54.1121007,24.5712766 54.3758288,25.5114195 54.3843363,26.7040261 L49.3819592,26.7040261 C49.4330041,27.3743233 49.607405,27.8792148 49.905167,28.218716 C50.219944,28.5669223 50.6410583,28.7410229 51.1685225,28.7410229 C51.6364342,28.7410229 52.0192654,28.6278575 52.3170274,28.4015234 C52.5297146,28.2361254 52.7296375,27.944507 52.9168022,27.5266594 L54.2694858,27.5266594 C54.1078436,28.1708411 53.8058323,28.6974952 53.363443,29.1066376 C52.7849339,29.620242 52.0575547,29.8770403 51.1812836,29.8770403 C50.2029227,29.8770403 49.4330067,29.5680118 48.8715126,28.9499456 C48.2589735,28.2970588 47.9527086,27.417851 47.9527086,26.312296 C47.9527086,25.3024977 48.2419588,24.4624625 48.8204679,23.7921654 C49.381962,23.1044579 50.151878,22.7606094 51.130239,22.7606094 C52.2191972,22.7606094 53.0401574,23.1349255 53.593144,23.8835691 L53.593144,23.8835691 Z M49.9562117,24.3536453 C49.6669571,24.6670309 49.4840489,25.1022823 49.4074815,25.6594124 L52.9678469,25.6594124 C52.8402346,24.4842161 52.2404658,23.8966268 51.1685225,23.8966268 C50.6580733,23.8966268 50.2539737,24.0489647 49.9562117,24.3536453 L49.9562117,24.3536453 Z M62.972601,21.5723613 C63.7382748,22.442877 64.121106,23.6006457 64.121106,25.0457018 C64.121106,26.4385271 63.7510359,27.5788857 63.0108845,28.4668118 C63.4873038,29.1196986 63.8233444,29.5941226 64.0190166,29.8900979 L63.125735,30.6996736 C62.7258832,30.1077228 62.3898425,29.6245938 62.1176029,29.250272 C61.4455115,29.6681196 60.6373124,29.8770403 59.6929814,29.8770403 C58.3062611,29.8770403 57.2130654,29.4156738 56.4133617,28.4929271 C55.6561954,27.6137062 55.2776179,26.4646426 55.2776179,25.0457018 C55.2776179,23.618056 55.6561954,22.4646399 56.4133617,21.5854189 C57.1960505,20.6539671 58.2892461,20.1882481 59.6929814,20.1882481 C61.0797017,20.1882481 62.1728973,20.6496145 62.972601,21.5723613 L62.972601,21.5723613 Z M57.434255,22.4472252 C56.9238058,23.0827018 56.668585,23.948852 56.668585,25.0457018 C56.668585,26.1251414 56.9238058,26.9869391 57.434255,27.6311208 C57.9787341,28.2927128 58.7316354,28.6235038 59.6929814,28.6235038 C60.3310428,28.6235038 60.8755138,28.4842234 61.3264106,28.2056583 C60.8925288,27.6485282 60.4373851,27.1131691 59.9609658,26.5995647 L60.7649193,25.7899891 C61.1477562,26.1991315 61.6071536,26.7257857 62.1431252,27.3699674 C62.5259621,26.7693115 62.7173777,25.994564 62.7173777,25.0457018 C62.7173777,23.9401468 62.4579033,23.0609391 61.9389466,22.4080522 C61.4199899,21.7638706 60.6713423,21.4417845 59.6929814,21.4417845 C58.7146204,21.4417845 57.9617191,21.7769281 57.434255,22.4472252 L57.434255,22.4472252 Z M65.3972226,22.9434168 L66.7499062,22.9434168 L66.7499062,27.0565832 C66.7499062,27.6398288 66.8690092,28.0576701 67.1072188,28.3101197 C67.3454284,28.5799796 67.7240059,28.7149075 68.2429626,28.7149075 C68.5832621,28.7149075 68.9107954,28.566922 69.2255724,28.2709467 C69.5318419,27.9662662 69.7445259,27.5658349 69.8636307,27.0696409 L69.8636307,22.9434168 L71.2163143,22.9434168 L71.2163143,29.6942329 L69.8636307,29.6942329 L69.8636307,28.7801959 C69.3021366,29.5114291 68.6087868,29.8770403 67.7835606,29.8770403 C66.1926606,29.8770403 65.3972226,28.9673649 65.3972226,27.1479869 L65.3972226,22.9434168 Z M77.8776429,23.5048966 C78.2774948,23.9401545 78.4774177,24.5669165 78.4774177,25.3852013 L78.4774177,29.6942329 L77.2268235,29.6942329 L77.2268235,28.7410229 C76.9801064,29.0718188 76.6568267,29.3460272 76.2569749,29.5636561 C75.823093,29.7725799 75.3169052,29.8770403 74.7383961,29.8770403 C74.0577972,29.8770403 73.5175799,29.6985872 73.117728,29.3416757 C72.7093687,28.9760591 72.505192,28.4929301 72.505192,27.8922742 C72.505192,27.0391687 72.8327254,26.4080543 73.4878018,25.9989119 C74.0407885,25.6507055 74.763914,25.476605 75.6572001,25.476605 L77.1374953,25.4635473 L77.1374953,25.2937976 C77.1374953,24.3536406 76.6398148,23.8835691 75.6444389,23.8835691 C75.1765271,23.8835691 74.819218,23.9706194 74.5725009,24.1447225 C74.2747389,24.3449412 74.1003381,24.6409121 74.0492931,25.0326442 L72.7093707,25.0326442 C72.8114605,24.2317697 73.1432475,23.6398278 73.7047416,23.2568009 C74.1811609,22.9260049 74.8574959,22.7606094 75.733767,22.7606094 C76.7036205,22.7606094 77.4182387,23.0087026 77.8776429,23.5048966 L77.8776429,23.5048966 Z M77.1374953,26.5212187 L75.7465282,26.5342764 C74.5129427,26.5342764 73.8961591,26.9738803 73.8961591,27.8531012 C73.8961591,28.1229611 73.9939938,28.3449393 74.189666,28.5190424 C74.3853381,28.6931456 74.6703347,28.7801959 75.0446641,28.7801959 C75.6486956,28.7801959 76.1548835,28.6060953 76.5632428,28.257889 C76.9460797,27.9009775 77.1374953,27.4396111 77.1374953,26.8737758 L77.1374953,26.5212187 Z M85.8278494,25.5288357 L85.8278494,29.6942329 L84.4751658,29.6942329 L84.4751658,25.6463547 C84.4751658,24.4972739 83.9604706,23.9227421 82.9310647,23.9227421 C82.5312128,23.9227421 82.1951721,24.0620225 81.9229326,24.3405876 C81.6081556,24.6626784 81.4252473,25.0935773 81.3742024,25.6332971 L81.3742024,29.6942329 L80.0215188,29.6942329 L80.0215188,22.9434168 L81.3742024,22.9434168 L81.3742024,23.7791077 C81.6209195,23.4483117 81.9144234,23.1958659 82.2547229,23.0217628 C82.5694999,22.8476596 82.93957,22.7606094 83.3649443,22.7606094 C85.0068892,22.7606094 85.8278494,23.6833422 85.8278494,25.5288357 L85.8278494,25.5288357 Z M92.4253722,19 L93.6504441,19 L93.6504441,31 L92.4253722,31 L92.4253722,19 Z M100.260728,20.3710555 L101.651695,20.3710555 L101.651695,26.1686616 C101.651695,27.0130619 101.838857,27.6311188 102.213187,28.0228509 C102.596023,28.4319933 103.200046,28.6365615 104.025272,28.6365615 C104.841991,28.6365615 105.44176,28.4319933 105.824597,28.0228509 C106.198926,27.6137085 106.386088,26.9956516 106.386088,26.1686616 L106.386088,20.3710555 L107.777055,20.3710555 L107.777055,26.1425462 C107.777055,27.3525632 107.449522,28.2796486 106.794445,28.9238303 C106.130861,29.5593068 105.207813,29.8770403 104.025272,29.8770403 C102.817209,29.8770403 101.894161,29.5636593 101.256099,28.9368879 C100.592515,28.2840011 100.260728,27.3525632 100.260728,26.1425462 L100.260728,20.3710555 Z M109.563618,20.3710555 L116.110096,20.3710555 L116.110096,21.5854189 L110.954585,21.5854189 L110.954585,24.3014146 L115.803828,24.3014146 L115.803828,25.515778 L110.954585,25.515778 L110.954585,28.4798694 L116.327036,28.4798694 L116.327036,29.6942329 L109.563618,29.6942329 L109.563618,20.3710555 Z M117.743526,20.3710555 L121.061429,20.3710555 C122.524716,20.3710555 123.63918,20.7932493 124.404854,21.6376496 C125.119483,22.4211138 125.476792,23.5527674 125.476792,25.0326442 C125.476792,26.4864055 125.110976,27.6224116 124.379332,28.4406964 C123.613658,29.2763916 122.499194,29.6942329 121.035906,29.6942329 L117.743526,29.6942329 L117.743526,20.3710555 Z M119.134493,21.5854189 L119.134493,28.4798694 L120.780683,28.4798694 C121.937701,28.4798694 122.784183,28.196956 123.320155,27.6311208 C123.847619,27.0652855 124.111347,26.1991353 124.111347,25.0326442 C124.111347,23.8487427 123.851873,22.97824 123.332916,22.4211099 C122.796945,21.8639798 121.954716,21.5854189 120.806205,21.5854189 L119.134493,21.5854189 Z" id="YuLeQuan丨UED"></path>
        </g>
    </g>
</svg>