<?xml version="1.0" encoding="UTF-8" standalone="no"?>
<svg width="150px" height="50px" viewBox="0 0 150 50" version="1.1" xmlns="http://www.w3.org/2000/svg" xmlns:xlink="http://www.w3.org/1999/xlink">
    <!-- Generator: Sketch 39.1 (31720) - http://www.bohemiancoding.com/sketch -->
    <title>Artboard</title>
    <desc>Created with Sketch.</desc>
    <defs>
        <filter x="-50%" y="-50%" width="200%" height="200%" filterUnits="objectBoundingBox" id="filter-1">
            <feGaussianBlur stdDeviation="1.47058824" in="SourceGraphic"></feGaussianBlur>
        </filter>
    </defs>
    <g id="Page-1" stroke="none" stroke-width="1" fill="none" fill-rule="evenodd">
        <g id="Artboard">
            <g id="Group-3" transform="translate(49.000000, 13.000000)">
                <g id="Group" transform="translate(8.000000, 4.000000)" fill="#747474">
                    <path d="M3.584,1.6 L12.4,1.6 L12.4,6.832 L3.584,6.832 L3.584,1.6 Z M11.248,5.744 L11.248,2.688 L4.736,2.688 L4.736,5.744 L11.248,5.744 Z M7.088,8.416 L7.088,15.36 L5.968,15.36 L5.968,14.544 L2.592,14.544 L2.592,15.36 L1.456,15.36 L1.456,8.416 L7.088,8.416 Z M2.592,13.456 L5.968,13.456 L5.968,9.52 L2.592,9.52 L2.592,13.456 Z M14.528,8.416 L14.528,15.36 L13.376,15.36 L13.376,14.544 L9.872,14.544 L9.872,15.36 L8.736,15.36 L8.736,8.416 L14.528,8.416 Z M9.872,13.456 L13.376,13.456 L13.376,9.52 L9.872,9.52 L9.872,13.456 Z M20.448,1.104 L21.552,1.104 L21.552,5.376 L22.48,5.376 L22.48,6.448 L18.816,6.448 L18.816,7.248 C18.816,7.61066848 18.8053334,8.1119968 18.784,8.752 L21.728,8.752 L21.728,15.376 L20.608,15.376 L20.608,9.824 L18.72,9.824 C18.527999,12.3946795 18.0800035,14.3626598 17.376,15.728 L16.528,14.992 C17.3066706,13.3813253 17.7013333,10.8000178 17.712,7.248 L17.712,1.424 L18.816,1.424 L18.816,5.376 L20.448,5.376 L20.448,1.104 Z M23.248,2.384 L25.68,2.384 C25.9253346,1.87199744 26.1013328,1.35466928 26.208,0.832 L27.344,0.992 C27.2053326,1.51466928 27.040001,1.97866464 26.848,2.384 L30.448,2.384 L30.448,9.088 L26.768,9.088 L26.576,9.456 C26.0639974,10.2986709 25.2480056,10.949331 24.128,11.408 L23.616,10.608 C24.5120045,10.2133314 25.1679979,9.70666976 25.584,9.088 L23.248,9.088 L23.248,2.384 Z M29.392,8.08 L29.392,6.208 L27.36,6.208 C27.3279998,6.85866992 27.2426674,7.48266368 27.104,8.08 L29.392,8.08 Z M26.032,8.08 C26.1920008,7.51466384 26.2879998,6.89067008 26.32,6.208 L24.288,6.208 L24.288,8.08 L26.032,8.08 Z M24.288,5.232 L26.336,5.232 L26.336,3.408 L24.288,3.408 L24.288,5.232 Z M27.376,3.408 L27.376,5.232 L29.392,5.232 L29.392,3.408 L27.376,3.408 Z M22.432,11.424 L27.392,11.424 L27.392,9.728 L28.512,9.728 L28.512,11.424 L31.28,11.424 L31.28,12.528 L28.512,12.528 L28.512,15.584 L27.392,15.584 L27.392,12.528 L22.432,12.528 L22.432,11.424 Z" id="品牌"></path>
                </g>
                <g id="Group-2-Copy" transform="translate(39.866025, 12.500000) scale(-1, -1) rotate(-330.000000) translate(-39.866025, -12.500000) translate(36.866025, 1.500000)">
                    <rect id="Rectangle-Copy" fill-opacity="0.4" fill="#616161" filter="url(#filter-1)" x="4" y="3" width="2" height="16"></rect>
                    <rect id="Rectangle" fill="#FFFFFF" x="-3.62376795e-13" y="1.84741111e-13" width="5" height="22"></rect>
                </g>
            </g>
        </g>
    </g>
</svg>