<?xml version="1.0" encoding="UTF-8" standalone="no"?>
<svg width="150px" height="50px" viewBox="0 0 150 50" version="1.1" xmlns="http://www.w3.org/2000/svg" xmlns:xlink="http://www.w3.org/1999/xlink">
    <!-- Generator: Sketch 39.1 (31720) - http://www.bohemiancoding.com/sketch -->
    <title>Artboard</title>
    <desc>Created with Sketch.</desc>
    <defs>
        <filter x="-50%" y="-50%" width="200%" height="200%" filterUnits="objectBoundingBox" id="filter-1">
            <feGaussianBlur stdDeviation="1.47058824" in="SourceGraphic"></feGaussianBlur>
        </filter>
    </defs>
    <g id="Page-1" stroke="none" stroke-width="1" fill="none" fill-rule="evenodd">
        <g id="Artboard">
            <g id="Group-3" transform="translate(49.000000, 13.000000)">
                <g id="Group" transform="translate(8.000000, 1.000000)" fill="#747474">
                    <path d="M3.584,4.6 L12.4,4.6 L12.4,9.832 L3.584,9.832 L3.584,4.6 Z M11.248,8.744 L11.248,5.688 L4.736,5.688 L4.736,8.744 L11.248,8.744 Z M7.088,11.416 L7.088,18.36 L5.968,18.36 L5.968,17.544 L2.592,17.544 L2.592,18.36 L1.456,18.36 L1.456,11.416 L7.088,11.416 Z M2.592,16.456 L5.968,16.456 L5.968,12.52 L2.592,12.52 L2.592,16.456 Z M14.528,11.416 L14.528,18.36 L13.376,18.36 L13.376,17.544 L9.872,17.544 L9.872,18.36 L8.736,18.36 L8.736,11.416 L14.528,11.416 Z M9.872,16.456 L13.376,16.456 L13.376,12.52 L9.872,12.52 L9.872,16.456 Z M20.448,4.104 L21.552,4.104 L21.552,8.376 L22.48,8.376 L22.48,9.448 L18.816,9.448 L18.816,10.248 C18.816,10.6106685 18.8053334,11.1119968 18.784,11.752 L21.728,11.752 L21.728,18.376 L20.608,18.376 L20.608,12.824 L18.72,12.824 C18.527999,15.3946795 18.0800035,17.3626598 17.376,18.728 L16.528,17.992 C17.3066706,16.3813253 17.7013333,13.8000178 17.712,10.248 L17.712,4.424 L18.816,4.424 L18.816,8.376 L20.448,8.376 L20.448,4.104 Z M23.248,5.384 L25.68,5.384 C25.9253346,4.87199744 26.1013328,4.35466928 26.208,3.832 L27.344,3.992 C27.2053326,4.51466928 27.040001,4.97866464 26.848,5.384 L30.448,5.384 L30.448,12.088 L26.768,12.088 L26.576,12.456 C26.0639974,13.2986709 25.2480056,13.949331 24.128,14.408 L23.616,13.608 C24.5120045,13.2133314 25.1679979,12.7066698 25.584,12.088 L23.248,12.088 L23.248,5.384 Z M29.392,11.08 L29.392,9.208 L27.36,9.208 C27.3279998,9.85866992 27.2426674,10.4826637 27.104,11.08 L29.392,11.08 Z M26.032,11.08 C26.1920008,10.5146638 26.2879998,9.89067008 26.32,9.208 L24.288,9.208 L24.288,11.08 L26.032,11.08 Z M24.288,8.232 L26.336,8.232 L26.336,6.408 L24.288,6.408 L24.288,8.232 Z M27.376,6.408 L27.376,8.232 L29.392,8.232 L29.392,6.408 L27.376,6.408 Z M22.432,14.424 L27.392,14.424 L27.392,12.728 L28.512,12.728 L28.512,14.424 L31.28,14.424 L31.28,15.528 L28.512,15.528 L28.512,18.584 L27.392,18.584 L27.392,15.528 L22.432,15.528 L22.432,14.424 Z" id="品牌"></path>
                </g>
                <g id="Group-2-Copy" transform="translate(39.866025, 12.500000) scale(-1, -1) rotate(-330.000000) translate(-39.866025, -12.500000) translate(36.866025, 1.500000)">
                    <rect id="Rectangle-Copy" fill-opacity="0.4" fill="#616161" filter="url(#filter-1)" x="4" y="3" width="2" height="16"></rect>
                    <rect id="Rectangle" fill="#FAFAFA" x="-2.84217094e-14" y="1.77635684e-14" width="5" height="22"></rect>
                </g>
            </g>
        </g>
    </g>
</svg>