<?xml version="1.0" encoding="UTF-8" standalone="no"?>
<svg width="150px" height="50px" viewBox="0 0 150 50" version="1.1" xmlns="http://www.w3.org/2000/svg" xmlns:xlink="http://www.w3.org/1999/xlink">
    <!-- Generator: Sketch 39.1 (31720) - http://www.bohemiancoding.com/sketch -->
    <title>Artboard</title>
    <desc>Created with Sketch.</desc>
    <defs>
        <filter x="-50%" y="-50%" width="200%" height="200%" filterUnits="objectBoundingBox" id="filter-1">
            <feGaussianBlur stdDeviation="1.47058824" in="SourceGraphic"></feGaussianBlur>
        </filter>
    </defs>
    <g id="Page-1" stroke="none" stroke-width="1" fill="none" fill-rule="evenodd">
        <g id="Artboard">
            <g id="Group-3" transform="translate(49.000000, 13.000000)">
                <g id="Group" transform="translate(8.000000, 4.000000)" fill="#747474">
                    <path d="M7.712,6.56 L3.888,6.56 L3.888,9.456 L7.712,9.456 L7.712,6.56 Z M8.88,9.456 L12.64,9.456 L12.64,6.56 L8.88,6.56 L8.88,9.456 Z M5.136,3.472 C4.47466336,4.19733696 3.744004,4.86933024 2.944,5.488 L8.464,5.488 C9.08266976,4.93333056 9.7119968,4.26133728 10.352,3.472 L5.136,3.472 Z M2.72,5.648 C2.3466648,5.93600144 1.93066896,6.22933184 1.472,6.528 L0.704,5.6 C2.76267696,4.3733272 4.45332672,2.78400976 5.776,0.832 L6.928,1.088 C6.61866512,1.57866912 6.31466816,2.02133136 6.016,2.416 L11.84,2.416 L11.84,3.296 C11.231997,4.16000432 10.6293363,4.89066368 10.032,5.488 L13.808,5.488 L13.808,10.544 L3.888,10.544 L3.888,13.488 C3.888,13.9786691 4.14933072,14.224 4.672,14.224 L12.4,14.224 C12.933336,14.2133333 13.3066656,14.037335 13.52,13.696 C13.6693341,13.4399987 13.8026661,12.7573389 13.92,11.648 L15.056,12 C14.9386661,13.0773387 14.7893342,13.8293312 14.608,14.256 C14.2879984,14.9493368 13.6693379,15.3119998 12.752,15.344 L4.224,15.344 C3.22132832,15.344 2.72,14.8640048 2.72,13.904 L2.72,5.648 Z M25.12,2.08 C23.1039899,2.7200032 20.4213501,3.04 17.072,3.04 L16.736,2.016 C19.861349,2.016 22.4746562,1.71733632 24.576,1.12 L25.12,2.08 Z M24.832,3.424 C24.5119984,4.69333968 24.1066691,5.80266192 23.616,6.752 L22.688,6.416 C23.1146688,5.60532928 23.5093315,4.52800672 23.872,3.184 L24.832,3.424 Z M30.224,1.664 C29.0719942,3.12534064 27.6213421,4.34666176 25.872,5.328 L25.376,4.272 C27.0080082,3.4186624 28.3679946,2.26134064 29.456,0.8 L30.224,1.664 Z M30.912,6 C29.6319936,7.58934128 28.0426762,8.90132816 26.144,9.936 L25.632,8.88 C27.4560091,7.94132864 28.9653274,6.6986744 30.16,5.152 L30.912,6 Z M31.408,10.4 C29.8933258,12.458677 27.9946781,14.1706598 25.712,15.536 L25.184,14.448 C27.392011,13.2213272 29.2053262,11.5840102 30.624,9.536 L31.408,10.4 Z M17.232,8.224 L20.72,8.224 L20.72,6.64 L21.872,6.64 L21.872,8.224 L25.04,8.224 L25.04,9.344 L21.872,9.344 L21.872,10.336 C22.9280053,10.9546698 23.9466618,11.6159965 24.928,12.32 L24.256,13.344 C23.4133291,12.5866629 22.6186704,11.9360027 21.872,11.392 L21.872,15.584 L20.72,15.584 L20.72,10.64 C19.7386618,12.2186746 18.6240062,13.5093283 17.376,14.512 L16.688,13.52 C18.2986747,12.3253274 19.5573288,10.9333413 20.464,9.344 L17.232,9.344 L17.232,8.224 Z M20.96,3.424 C21.3760021,4.29867104 21.6906656,5.07732992 21.904,5.76 L20.928,6.112 C20.6826654,5.33332944 20.3680019,4.52800416 19.984,3.696 L20.96,3.424 Z M18.08,3.728 C18.5493357,4.56000416 18.9599982,5.49866144 19.312,6.544 L18.368,6.784 C18.0373317,5.79199504 17.6373357,4.87467088 17.168,4.032 L18.08,3.728 Z" id="色彩"></path>
                </g>
                <g id="Group-2-Copy" transform="translate(39.866025, 12.500000) scale(-1, -1) rotate(-330.000000) translate(-39.866025, -12.500000) translate(36.866025, 1.500000)">
                    <rect id="Rectangle-Copy" fill-opacity="0.4" fill="#616161" filter="url(#filter-1)" x="4" y="3" width="2" height="16"></rect>
                    <rect id="Rectangle" fill="#FAFAFA" x="-2.84217094e-14" y="1.77635684e-14" width="5" height="22"></rect>
                </g>
            </g>
        </g>
    </g>
</svg>