<?xml version="1.0" encoding="UTF-8" standalone="no"?>
<svg width="150px" height="50px" viewBox="0 0 150 50" version="1.1" xmlns="http://www.w3.org/2000/svg" xmlns:xlink="http://www.w3.org/1999/xlink">
    <!-- Generator: Sketch 39.1 (31720) - http://www.bohemiancoding.com/sketch -->
    <title>Artboard</title>
    <desc>Created with Sketch.</desc>
    <defs>
        <filter x="-50%" y="-50%" width="200%" height="200%" filterUnits="objectBoundingBox" id="filter-1">
            <feGaussianBlur stdDeviation="1.47058824" in="SourceGraphic"></feGaussianBlur>
        </filter>
    </defs>
    <g id="Page-1" stroke="none" stroke-width="1" fill="none" fill-rule="evenodd">
        <g id="Artboard">
            <g id="Group-3" transform="translate(49.000000, 13.000000)">
                <g id="Group" transform="translate(8.000000, 4.000000)" fill="#747474">
                    <path d="M14.784,2.576 L14.784,6.144 L13.632,6.144 L13.632,3.68 L2.368,3.68 L2.368,6.144 L1.216,6.144 L1.216,2.576 L7.504,2.576 C7.2906656,2.02133056 7.050668,1.5040024 6.784,1.024 L8.096,0.8 C8.32000112,1.31200256 8.54399888,1.90399664 8.768,2.576 L14.784,2.576 Z M3.68,5.408 L12.272,5.408 L12.272,6.48 C11.3226619,7.15200336 10.1600069,7.86666288 8.784,8.624 L8.784,9.696 L15.088,9.696 L15.088,10.816 L8.784,10.816 L8.784,14.208 C8.784,15.0933378 8.32000464,15.536 7.392,15.536 L5.424,15.536 L5.152,14.48 C5.8986704,14.5013334 6.5119976,14.512 6.992,14.512 C7.40800208,14.512 7.616,14.2773357 7.616,13.808 L7.616,10.816 L0.928,10.816 L0.928,9.696 L7.616,9.696 L7.616,8.128 C8.82133936,7.49866352 9.7973296,6.94933568 10.544,6.48 L3.68,6.48 L3.68,5.408 Z M18.576,6.976 C18.0959976,7.6693368 17.5573363,8.35732992 16.96,9.04 L16.624,7.888 C18.2880083,5.83998976 19.4879963,3.49867984 20.224,0.864 L21.264,1.344 C20.8373312,2.70934016 20.320003,3.96799424 19.712,5.12 L19.712,15.616 L18.576,15.616 L18.576,6.976 Z M20.992,3.664 L25.232,3.664 L25.232,0.912 L26.368,0.912 L26.368,3.664 L30.736,3.664 L30.736,4.784 L27.36,4.784 C28.1173371,7.45068 29.4506571,9.80265648 31.36,11.84 L30.608,12.784 C28.6453235,10.4053214 27.2853371,7.73868144 26.528,4.784 L26.368,4.784 L26.368,11.2 L28.848,11.2 L28.848,12.304 L26.368,12.304 L26.368,15.6 L25.232,15.6 L25.232,12.304 L22.784,12.304 L22.784,11.2 L25.232,11.2 L25.232,4.784 L25.056,4.784 C24.2453293,8.11201664 22.8533432,10.8319894 20.88,12.944 L20.288,11.968 C22.1120091,10.1119907 23.423996,7.717348 24.224,4.784 L20.992,4.784 L20.992,3.664 Z" id="字体"></path>
                </g>
                <g id="Group-2-Copy" transform="translate(39.866025, 12.500000) scale(-1, -1) rotate(-330.000000) translate(-39.866025, -12.500000) translate(36.866025, 1.500000)">
                    <rect id="Rectangle-Copy" fill-opacity="0.4" fill="#616161" filter="url(#filter-1)" x="4" y="3" width="2" height="16"></rect>
                    <rect id="Rectangle" fill="#FAFAFA" x="-2.84217094e-14" y="1.77635684e-14" width="5" height="22"></rect>
                </g>
            </g>
        </g>
    </g>
</svg>