<?xml version="1.0" encoding="UTF-8" standalone="no"?>
<svg width="120px" height="40px" viewBox="0 0 120 40" version="1.1" xmlns="http://www.w3.org/2000/svg" xmlns:xlink="http://www.w3.org/1999/xlink">
    <!-- Generator: Sketch 39.1 (31720) - http://www.bohemiancoding.com/sketch -->
    <title>Artboard 2</title>
    <desc>Created with Sketch.</desc>
    <defs></defs>
    <g id="Page-1" stroke="none" stroke-width="1" fill="none" fill-rule="evenodd">
        <g id="Artboard-2">
            <g id="Group" transform="translate(6.000000, 5.000000)">
                <rect id="tab_icon_le" x="0" y="0" width="30" height="30"></rect>
                <path d="M14.9999817,24.1934363 L8.66698945,27.5236952 C6.97485121,28.4135208 5.86405883,27.6130035 6.18825254,25.7223505 L7.39774644,18.668749 L2.27424808,13.6733606 C0.905279493,12.3386223 1.32317825,11.0345662 3.22104133,10.7587236 L10.3015419,9.72961706 L13.468038,3.3120384 C14.3141072,1.59729918 15.6831752,1.59186546 16.5319254,3.3120384 L19.6984215,9.72961706 L26.7789221,10.7587236 C28.6707901,11.0336949 29.0990219,12.3343927 27.7257153,13.6733606 L22.602217,18.668749 L14.9999817,24.1934363 Z" id="Star-3" fill="#45C256"></path>
                <g id="icon" transform="translate(18.249672, 18.641304) rotate(-75.000000) translate(-18.249672, -18.641304) translate(10.249672, 10.141304)" stroke-width="1.73076923" stroke-linecap="round" stroke-linejoin="round">
                    <path d="M6.82664398,13.8211425 L5.48617193,15.18496 C4.28601597,16.406289 2.34053088,16.4057462 1.14037491,15.1844172 C-0.0597810517,13.9636309 -0.0600478123,11.9842636 1.14037491,10.7629346 L2.48058019,9.39938853" id="Stroke-1" stroke="#44C256" fill="#FFFFFF"></path>
                    <path d="M2.48058019,9.39938853 L6.56382523,0.949237678 C6.7104493,0.645803663 7.10269672,0.465422907 7.42413738,0.560941514 C7.42413738,0.560941514 9.59241793,0.907894682 12.3824671,3.74680623 C15.172783,6.58544637 15.5235193,8.82301763 15.5235193,8.82301763 C15.6056107,9.13983955 15.4355627,9.5150183 15.1321477,9.66678447 L6.82664398,13.8211425 L2.48058019,9.39938853 Z" id="Stroke-3" stroke="#44C256" fill="#FFFFFF"></path>
                    <path d="M10.8999538,6.38206712 C11.8784385,7.3774977 11.8625948,7.78886388 11.8625948,7.78886388 C11.9680594,8.10612484 11.8101568,8.48506204 11.5132507,8.63357251 L8.95168421,9.91485112" id="Stroke-3" stroke="#45C256"></path>
                </g>
            </g>
            <rect id="Rectangle-3" fill="#45C256" x="38" y="31" width="2" height="2"></rect>
            <text id="YuLeQuan" font-family="HelveticaNeue-Bold, Helvetica Neue" font-size="12" font-weight="bold" fill="#45C256">
                <tspan x="49" y="33">YuLeQuan</tspan>
            </text>
            <text id="UED" font-family="HelveticaNeue-Bold, Helvetica Neue" font-size="12" font-weight="bold" fill="#45C256">
                <tspan x="49" y="18">UED</tspan>
            </text>
        </g>
    </g>
</svg>