<?xml version="1.0" encoding="UTF-8" standalone="no"?>
<svg width="518px" height="406px" viewBox="0 0 518 406" version="1.1" xmlns="http://www.w3.org/2000/svg" xmlns:xlink="http://www.w3.org/1999/xlink">
    <!-- Generator: Sketch 39.1 (31720) - http://www.bohemiancoding.com/sketch -->
    <title>标志</title>
    <desc>Created with Sketch.</desc>
    <defs></defs>
    <g id="Page-1" stroke="none" stroke-width="1" fill="none" fill-rule="evenodd">
        <g id="电视" transform="translate(-767.000000, -377.000000)">
            <g id="标志" transform="translate(767.000000, 360.000000)">
                <g id="文字" transform="translate(0.000000, 293.000000)" fill="#FFFFFF">
                    <path d="M3.384,7.304 L11.768,7.304 L24.952,28.232 L38.136,7.304 L46.52,7.304 L28.408,34.76 L28.408,53 L21.496,53 L21.496,34.76 L3.384,7.304 Z M50.68,19.912 L57.464,19.912 L57.464,40.072 C57.464,42.930681 58.0613274,44.9786605 59.256,46.216 C60.4506726,47.5386733 62.3493203,48.2 64.952,48.2 C66.6586752,48.2 68.3013254,47.4746739 69.88,46.024 C71.4160077,44.5306592 72.4826637,42.5680122 73.08,40.136 L73.08,19.912 L79.864,19.912 L79.864,53 L73.08,53 L73.08,48.52 C70.2639859,52.1040179 66.7866874,53.896 62.648,53.896 C54.6692934,53.896 50.68,49.4373779 50.68,40.52 L50.68,19.912 Z M88.248,7.304 L95.16,7.304 L95.16,47.048 L120.312,47.048 L120.312,53 L88.248,53 L88.248,7.304 Z M151.8,24.52 C154.40268,27.8906835 155.725333,32.4986374 155.768,38.344 L130.68,38.344 C130.936001,41.6293498 131.810659,44.1039917 133.304,45.768 C134.882675,47.4746752 136.994653,48.328 139.64,48.328 C141.986678,48.328 143.906659,47.7733389 145.4,46.664 C146.466672,45.8533293 147.469329,44.4240102 148.408,42.376 L155.192,42.376 C154.381329,45.5333491 152.866678,48.1146566 150.648,50.12 C147.746652,52.6373459 144.098689,53.896 139.704,53.896 C134.797309,53.896 130.936014,52.3813485 128.12,49.352 C125.047985,46.151984 123.512,41.8426938 123.512,36.424 C123.512,31.4746419 124.962652,27.3573498 127.864,24.072 C130.680014,20.7013165 134.541309,19.016 139.448,19.016 C144.909361,19.016 149.026653,20.8506483 151.8,24.52 L151.8,24.52 Z M133.56,26.824 C132.109326,28.3600077 131.192002,30.4933197 130.808,33.224 L148.664,33.224 C148.023997,27.4639712 145.016027,24.584 139.64,24.584 C137.079987,24.584 135.053341,25.3306592 133.56,26.824 L133.56,26.824 Z M198.84,13.192 C202.680019,17.458688 204.6,23.1332979 204.6,30.216 C204.6,37.0427008 202.744019,42.6319782 199.032,46.984 C201.421345,50.184016 203.106662,52.5093261 204.088,53.96 L199.608,57.928 C197.602657,55.0266522 195.91734,52.6586758 194.552,50.824 C191.181316,52.8720102 187.128024,53.896 182.392,53.896 C175.437299,53.896 169.954687,51.6346893 165.944,47.112 C162.146648,42.8026451 160.248,37.1707014 160.248,30.216 C160.248,23.2186317 162.146648,17.5653549 165.944,13.256 C169.869353,8.69064384 175.351965,6.408 182.392,6.408 C189.346701,6.408 194.829313,8.66931072 198.84,13.192 L198.84,13.192 Z M171.064,17.48 C168.503987,20.5946822 167.224,24.8399731 167.224,30.216 C167.224,35.5066931 168.503987,39.7306509 171.064,42.888 C173.79468,46.1306829 177.570643,47.752 182.392,47.752 C185.592016,47.752 188.322655,47.0693402 190.584,45.704 C188.407989,42.9733197 186.125345,40.3493459 183.736,37.832 L187.768,33.864 C189.68801,35.8693434 191.991987,38.4506509 194.68,41.608 C196.60001,38.6639853 197.56,34.8666899 197.56,30.216 C197.56,24.7973062 196.25868,20.488016 193.656,17.288 C191.05332,14.1306509 187.298691,12.552 182.392,12.552 C177.485309,12.552 173.709347,14.1946502 171.064,17.48 L171.064,17.48 Z M211,19.912 L217.784,19.912 L217.784,40.072 C217.784,42.930681 218.381327,44.9786605 219.576,46.216 C220.770673,47.5386733 222.66932,48.2 225.272,48.2 C226.978675,48.2 228.621325,47.4746739 230.2,46.024 C231.736008,44.5306592 232.802664,42.5680122 233.4,40.136 L233.4,19.912 L240.184,19.912 L240.184,53 L233.4,53 L233.4,48.52 C230.583986,52.1040179 227.106687,53.896 222.968,53.896 C214.989293,53.896 211,49.4373779 211,40.52 L211,19.912 Z M273.592,22.664 C275.597343,24.797344 276.6,27.8693133 276.6,31.88 L276.6,53 L270.328,53 L270.328,48.328 C269.09066,49.9493414 267.469343,51.293328 265.464,52.36 C263.287989,53.3840051 260.749348,53.896 257.848,53.896 C254.43465,53.896 251.725343,53.0213421 249.72,51.272 C247.67199,49.479991 246.648,47.1120147 246.648,44.168 C246.648,39.9866458 248.29065,36.8933434 251.576,34.888 C254.349347,33.1813248 257.975978,32.328 262.456,32.328 L269.88,32.264 L269.88,31.432 C269.88,26.823977 267.384025,24.52 262.392,24.52 C260.045322,24.52 258.25334,24.9466624 257.016,25.8 C255.522659,26.7813382 254.648001,28.2319904 254.392,30.152 L247.672,30.152 C248.184003,26.226647 249.847986,23.3253427 252.664,21.448 C255.053345,19.8266586 258.445311,19.016 262.84,19.016 C267.704024,19.016 271.287988,20.2319878 273.592,22.664 L273.592,22.664 Z M269.88,37.448 L262.904,37.512 C256.717302,37.512 253.624,39.6666451 253.624,43.976 C253.624,45.2986733 254.114662,46.3866624 255.096,47.24 C256.077338,48.0933376 257.506657,48.52 259.384,48.52 C262.413348,48.52 264.95199,47.6666752 267,45.96 C268.92001,44.2106579 269.88,41.9493472 269.88,39.176 L269.88,37.448 Z M313.464,32.584 L313.464,53 L306.68,53 L306.68,33.16 C306.68,27.5279718 304.098692,24.712 298.936,24.712 C296.930657,24.712 295.24534,25.3946598 293.88,26.76 C292.301325,28.3386746 291.384001,30.4506534 291.128,33.096 L291.128,53 L284.344,53 L284.344,19.912 L291.128,19.912 L291.128,24.008 C292.36534,22.3866586 293.837325,21.1493376 295.544,20.296 C297.122675,19.4426624 298.978656,19.016 301.112,19.016 C309.346708,19.016 313.464,23.5386214 313.464,32.584 L313.464,32.584 Z M346.552,0.584 L352.696,0.584 L352.696,59.4 L346.552,59.4 L346.552,0.584 Z M385.848,7.304 L392.824,7.304 L392.824,35.72 C392.824,39.8586874 393.762657,42.8879904 395.64,44.808 C397.56001,46.8133434 400.589313,47.816 404.728,47.816 C408.82402,47.816 411.83199,46.8133434 413.752,44.808 C415.629343,42.8026566 416.568,39.7733536 416.568,35.72 L416.568,7.304 L423.544,7.304 L423.544,35.592 C423.544,41.5226963 421.90135,46.0666509 418.616,49.224 C415.287983,52.3386822 410.658696,53.896 404.728,53.896 C398.669303,53.896 394.040016,52.3600154 390.84,49.288 C387.511983,46.087984 385.848,41.5226963 385.848,35.592 L385.848,7.304 Z M432.504,7.304 L465.336,7.304 L465.336,13.256 L439.48,13.256 L439.48,26.568 L463.8,26.568 L463.8,32.52 L439.48,32.52 L439.48,47.048 L466.424,47.048 L466.424,53 L432.504,53 L432.504,7.304 Z M473.528,7.304 L490.168,7.304 C497.506703,7.304 503.095981,9.37331264 506.936,13.512 C510.520018,17.3520192 512.312,22.8986304 512.312,30.152 C512.312,37.277369 510.477352,42.8453133 506.808,46.856 C502.967981,50.9520205 497.378703,53 490.04,53 L473.528,53 L473.528,7.304 Z M480.504,13.256 L480.504,47.048 L488.76,47.048 C494.562696,47.048 498.807987,45.6613472 501.496,42.888 C504.141347,40.1146528 505.464,35.8693619 505.464,30.152 C505.464,24.3493043 504.16268,20.0826803 501.56,17.352 C498.871987,14.6213197 494.648029,13.256 488.888,13.256 L480.504,13.256 Z" id="YuLeQuan丨UED"></path>
                    <path d="M14.04,97.2 L1.56,97.2 L1.56,93.52 L17.76,93.52 L17.76,124.24 C17.76,127.360016 16.1733492,128.92 13,128.92 L7.32,128.92 L6.32,125.28 L12.12,125.44 C13.4000064,125.44 14.04,124.666674 14.04,123.12 L14.04,113.92 C10.6799832,117.120016 6.800022,119.799989 2.4,121.96 L0.32,118.44 C5.6266932,116.066655 10.1999808,112.960019 14.04,109.12 L14.04,97.2 Z M5.04,99.32 C7.4933456,102.546683 9.4666592,105.479987 10.96,108.12 L7.72,110.36 C6.3333264,107.719987 4.4000124,104.69335 1.92,101.28 L5.04,99.32 Z M24.4,128.92 L23.36,125.28 L29.92,125.44 C31.25334,125.44 31.92,124.666674 31.92,123.12 L31.92,113.04 C28.6399836,116.240016 24.9466872,118.906656 20.84,121.04 L18.76,117.52 C23.693358,115.199988 28.0799808,112.066686 31.92,108.12 L31.92,97.2 L19.6,97.2 L19.6,93.52 L35.6,93.52 L35.6,124.24 C35.6,127.360016 33.9866828,128.92 30.76,128.92 L24.4,128.92 Z M23,99.12 C25.3466784,102.213349 27.1466604,104.959988 28.4,107.36 L25.16,109.6 C23.9066604,107.093321 22.1600112,104.253349 19.92,101.08 L23,99.12 Z M50.76,111.2 C52.1200068,104.959969 53.0799972,99.440024 53.64,94.64 C54.706672,94.8266676 55.7199952,94.9333332 56.68,94.96 C65.9067128,94.9333332 73.4266376,94.0266756 79.24,92.24 L81.04,95.44 C74.8533024,97.1200084 66.7467168,98.0399992 56.72,98.2 C56.2133308,101.346682 55.62667,104.439985 54.96,107.48 L65.4,107.48 L65.4,100.16 L69.24,100.16 L69.24,107.48 L83.52,107.48 L83.52,111.2 L69.24,111.2 L69.24,124.52 C69.24,127.480015 67.8666804,128.96 65.12,128.96 L59.72,128.96 L58.88,125.24 C60.613342,125.400001 62.2533256,125.48 63.8,125.48 C64.866672,125.48 65.4,124.840006 65.4,123.56 L65.4,111.2 L50.76,111.2 Z M59.2,115.36 C57.19999,120.000023 54.8800132,124.039983 52.24,127.48 L48.92,125.08 C51.6133468,121.906651 53.9199904,118.120022 55.84,113.72 L59.2,115.36 Z M77.44,113.52 C79.7866784,117.280019 82.026656,121.373311 84.16,125.8 L80.56,127.6 C78.55999,122.959977 76.4000116,118.800018 74.08,115.12 L77.44,113.52 Z M104.4,101.4 L107.52,101.4 C107.119998,100.466662 106.640003,99.5866708 106.08,98.76 L108.92,97.72 C109.50667,98.7333384 110.066664,99.9599928 110.6,101.4 L112.72,101.4 C113.066668,99.9066592 113.333332,98.5733392 113.52,97.4 L116.92,97.8 C116.733332,99.0800064 116.493335,100.279994 116.2,101.4 L119,101.4 C119.613336,100.253328 120.066665,99.01334 120.36,97.68 L123.36,98.44 C123.146666,99.373338 122.773336,100.359995 122.24,101.4 L125.6,101.4 L125.6,104.28 L115.32,104.28 C115.133332,104.760002 114.853335,105.426662 114.48,106.28 L126.52,106.28 L126.52,109.16 L121.84,109.16 C123.17334,111.053343 125.266652,112.773326 128.12,114.32 L128.12,96.6 L101.88,96.6 L101.88,124.52 L128.12,124.52 L128.12,114.4 L126.12,116.92 C123.879989,115.373326 122.106673,113.800008 120.8,112.2 L120.8,115.56 C120.8,117.293342 119.733344,118.2 117.6,118.28 C116.453328,118.28 115.320006,118.24 114.2,118.16 L113.52,115.68 C114.906674,115.786667 115.826664,115.84 116.28,115.84 C117.160004,115.84 117.6,115.453337 117.6,114.68 L117.6,113.48 L111.48,113.48 L111.48,119.36 C111.48,119.893336 111.839996,120.16 112.56,120.16 L118.12,120.16 C119.53334,120.16 120.439998,119.986668 120.84,119.64 C121.133335,119.213331 121.386666,118.37334 121.6,117.12 L124.68,118.12 C124.333332,120.386678 123.813337,121.759998 123.12,122.24 C122.37333,122.693336 121.026676,122.92 119.08,122.92 L111.12,122.92 C109.146657,122.92 108.16,122.080008 108.16,120.4 L108.16,114.56 C106.933327,115.546672 105.560008,116.466662 104.04,117.32 L102.28,114.56 C105.02668,113.253327 107.279991,111.453345 109.04,109.16 L103.48,109.16 L103.48,106.28 L110.88,106.28 C111.253335,105.559996 111.559999,104.893336 111.8,104.28 L104.4,104.28 L104.4,101.4 Z M119.96,111.08 C119.479998,110.439997 119.080002,109.800003 118.76,109.16 L112.88,109.16 C112.29333,110.013338 111.840002,110.653331 111.52,111.08 L119.96,111.08 Z M101.88,127.64 L101.88,129.16 L98.28,129.16 L98.28,93.52 L131.72,93.52 L131.72,129.16 L128.12,129.16 L128.12,127.64 L101.88,127.64 Z M170.28,113.04 C169.453329,112.45333 168.733336,111.800004 168.12,111.08 L157.68,111.08 C157.01333,111.800004 156.30667,112.45333 155.56,113.04 L170.28,113.04 Z M172.24,111.08 C174.453344,112.41334 177.386648,113.479996 181.04,114.28 L179.52,117.48 C177.573324,116.866664 175.89334,116.213337 174.48,115.52 L174.48,122.64 L170.76,122.64 L170.76,116.08 L155.64,116.08 L155.64,122.64 L151.96,122.64 L151.96,115.32 C150.519993,116.06667 148.813343,116.799996 146.84,117.52 L144.88,114.36 C148.586685,113.426662 151.466656,112.33334 153.52,111.08 L145.96,111.08 L145.96,108.08 L156.52,108.08 L156.52,106.28 L151.76,106.28 L151.76,103.56 L156.52,103.56 L156.52,101.84 L150.96,101.84 L150.96,99 L156.52,99 L156.52,97.4 L150,97.4 L150,101.2 L146.32,101.2 L146.32,94.24 L161,94.24 C160.573331,93.5466632 160.133336,92.9466692 159.68,92.44 L163.72,91.76 C164.093335,92.3733364 164.506664,93.1999948 164.96,94.24 L179.68,94.24 L179.68,101.2 L176,101.2 L176,97.4 L169.44,97.4 L169.44,99 L175.04,99 L175.04,101.84 L169.44,101.84 L169.44,103.56 L174.28,103.56 L174.28,106.28 L169.44,106.28 L169.44,108.08 L180.12,108.08 L180.12,111.08 L172.24,111.08 Z M165.76,97.4 L160.24,97.4 L160.24,99 L165.76,99 L165.76,97.4 Z M160.24,108.08 L165.76,108.08 L165.76,106.28 L160.24,106.28 L160.24,108.08 Z M165.76,103.56 L165.76,101.84 L160.24,101.84 L160.24,103.56 L165.76,103.56 Z M165.88,121.92 C170.146688,123.120006 174.119982,124.626658 177.8,126.44 L175.88,129.4 C172.093314,127.426657 168.133354,125.853339 164,124.68 L165.88,121.92 Z M164.56,117.32 C164.053331,121.613355 163.013341,124.46666 161.44,125.88 C159.733325,127.666676 155.640032,128.839997 149.16,129.4 L147.72,126.16 C153.106694,125.919999 156.653325,125.120007 158.36,123.76 C159.933341,122.42666 160.813332,120.173349 161,117 L164.56,117.32 Z M197.28,99.4 L209.12,99.4 L209.12,97.4 L193.76,97.4 L193.76,94.16 L209.12,94.16 L209.12,92.08 L212.88,92.08 L212.88,94.16 L228.24,94.16 L228.24,97.4 L212.88,97.4 L212.88,99.4 L224.72,99.4 L224.72,107.64 L212.88,107.64 L212.88,109.64 L225.28,109.64 L225.28,114.88 L229.32,114.88 L229.32,117.96 L225.28,117.96 L225.28,123.2 L212.88,123.2 L212.88,125.24 C212.88,127.720012 211.560013,128.96 208.92,128.96 L204,128.96 L203.2,125.36 C204.986676,125.546668 206.466661,125.64 207.64,125.64 C208.626672,125.64 209.12,125.213338 209.12,124.36 L209.12,123.2 L196.28,123.2 L196.28,120.16 L209.12,120.16 L209.12,117.96 L192.68,117.96 L192.68,114.88 L209.12,114.88 L209.12,112.6 L196.32,112.6 L196.32,109.64 L209.12,109.64 L209.12,107.64 L197.28,107.64 L197.28,99.4 Z M220.96,104.8 L220.96,102.2 L212.88,102.2 L212.88,104.8 L220.96,104.8 Z M209.12,104.8 L209.12,102.2 L201.04,102.2 L201.04,104.8 L209.12,104.8 Z M212.88,112.6 L212.88,114.88 L221.64,114.88 L221.64,112.6 L212.88,112.6 Z M221.64,117.96 L212.88,117.96 L212.88,120.16 L221.64,120.16 L221.64,117.96 Z M248.04,106.72 L248.04,112.84 L257.24,112.84 L257.24,106.72 L248.04,106.72 Z M247.84,116.36 C247.359998,121.400025 245.880012,125.559984 243.4,128.84 L240.48,126.24 C242.880012,122.799983 244.12,118.440026 244.2,113.16 L244.2,93.56 L274.88,93.56 L274.88,123.68 C274.88,126.693348 273.346682,128.2 270.28,128.2 L265.68,128.2 L264.68,124.48 C266.413342,124.613334 267.866661,124.68 269.04,124.68 C270.346673,124.68 271,123.893341 271,122.32 L271,116.36 L261.08,116.36 L261.08,127.76 L257.24,127.76 L257.24,116.36 L247.84,116.36 Z M271,112.84 L271,106.72 L261.08,106.72 L261.08,112.84 L271,112.84 Z M271,103.24 L271,97.24 L261.08,97.24 L261.08,103.24 L271,103.24 Z M257.24,97.24 L248.04,97.24 L248.04,103.24 L257.24,103.24 L257.24,97.24 Z M318.36,100.52 L296.56,100.52 L296.56,107.32 L318.36,107.32 L318.36,100.52 Z M296.52,111.04 C296.279999,118.133369 294.426684,124.226641 290.96,129.32 L288.16,126.76 C291.226682,122.386645 292.773333,116.760034 292.8,109.88 L292.8,96.8 L305.64,96.8 C304.97333,95.2266588 304.253337,93.8000064 303.48,92.52 L307.56,91.88 C308.173336,93.2400068 308.826663,94.8799904 309.52,96.8 L322.2,96.8 L322.2,111.04 L296.52,111.04 Z M341,108.8 C339.853328,110.320008 338.706672,111.733327 337.56,113.04 L336.44,109.24 C340.386686,104.279975 343.279991,98.533366 345.12,92 L348.52,93.6 C347.586662,96.7466824 346.320008,99.8399848 344.72,102.88 L344.72,129.16 L341,129.16 L341,108.8 Z M347.52,98.64 L357.64,98.64 L357.64,92.16 L361.36,92.16 L361.36,98.64 L371.96,98.64 L371.96,102.28 L364.08,102.28 C365.946676,108.600032 369.093311,114.173309 373.52,119 L371.08,122.08 C366.439977,116.239971 363.200009,109.69337 361.36,102.44 L361.36,117.56 L367.08,117.56 L367.08,121.2 L361.36,121.2 L361.36,129.12 L357.64,129.12 L357.64,121.2 L352.04,121.2 L352.04,117.56 L357.64,117.56 L357.64,102.28 C355.63999,110.520041 352.280024,117.279974 347.56,122.56 L345.6,119.32 C349.893355,114.813311 352.99999,109.133368 354.92,102.28 L347.52,102.28 L347.52,98.64 Z M404.2,104.72 C402.919994,106.106674 401.560007,107.346661 400.12,108.44 L398.12,105.4 C402.466688,102.06665 405.853321,97.6800272 408.28,92.24 L411.68,92.24 C413.653343,97.2266916 417.066642,101.573315 421.92,105.28 L419.84,108.4 C418.293326,107.226661 416.880006,105.946674 415.6,104.56 L415.6,106.96 L404.2,106.96 L404.2,104.72 Z M414.68,103.52 C412.706657,101.119988 411.133339,98.6000132 409.96,95.96 C408.54666,98.893348 406.973342,101.413323 405.24,103.52 L414.68,103.52 Z M399.28,124.2 L412.12,124.2 C413.560007,120.066646 414.839994,114.973364 415.96,108.92 L419.6,109.84 C418.559995,115.146693 417.280008,119.933312 415.76,124.2 L421.36,124.2 L421.36,127.84 L399.28,127.84 L399.28,124.2 Z M403.6,110.08 C404.826673,113.41335 405.933328,117.186646 406.92,121.4 L403.68,122.2 C402.826662,118.519982 401.720007,114.853352 400.36,111.2 L403.6,110.08 Z M409.76,108.88 C410.720005,111.760014 411.626662,115.373312 412.48,119.72 L409.2,120.52 C408.506663,116.786648 407.613339,113.25335 406.52,109.92 L409.76,108.88 Z M394.48,97.2 L385.12,97.2 L385.12,93.76 L398.24,93.76 L396.36,110.24 L398.68,110.24 C398.68,119.546713 398.266671,124.946659 397.44,126.44 C396.613329,127.880007 394.86668,128.6 392.2,128.6 C391.319996,128.6 390.400005,128.56 389.44,128.48 L388.44,125.12 C389.933341,125.333334 390.906664,125.44 391.36,125.44 C393.146676,125.44 394.226665,124.866672 394.6,123.72 C395.000002,122.546661 395.2,119.173361 395.2,113.6 L385.08,113.6 L386.96,99.48 L390.44,99.68 L388.88,110.24 L392.8,110.24 L394.48,97.2 Z M393.44,119.76 C390.85332,120.720005 387.89335,121.519997 384.56,122.16 L384.12,118.56 C387.746685,117.97333 390.85332,117.240004 393.44,116.36 L393.44,119.76 Z M449.04,92.04 L452.96,92.04 L452.96,98.96 L467.2,98.96 L467.2,118.28 L463.4,118.28 L463.4,116 L452.96,116 L452.96,129.4 L449.04,129.4 L449.04,116 L438.64,116 L438.64,118.28 L434.84,118.28 L434.84,98.96 L449.04,98.96 L449.04,92.04 Z M438.64,112.28 L449.04,112.28 L449.04,102.68 L438.64,102.68 L438.64,112.28 Z M452.96,112.28 L463.4,112.28 L463.4,102.68 L452.96,102.68 L452.96,112.28 Z M495.4,127.8 C492.279984,127.8 490.72,126.266682 490.72,123.2 L490.72,100.56 L494.52,100.56 L494.52,122.4 C494.52,123.520006 495.199993,124.08 496.56,124.08 L503.56,124.08 C504.333337,124.08 504.906665,123.693337 505.28,122.92 C505.706669,121.986662 505.999999,119.320022 506.16,114.92 L509.76,116.12 C509.439998,121.773362 508.840004,125.159994 507.96,126.28 C507.159996,127.293338 505.933342,127.8 504.28,127.8 L495.4,127.8 Z M488.32,105.28 C487.253328,112.373369 485.706677,118.519974 483.68,123.72 L480.4,121.68 C482.346676,116.42664 483.773329,110.706698 484.68,104.52 L488.32,105.28 Z M511.56,103.44 C513.986679,109.040028 516.039992,114.746638 517.72,120.56 L514.24,122.12 C512.293324,115.479967 510.173345,109.666692 507.88,104.68 L511.56,103.44 Z M497.32,92.12 C500.866684,96.2000204 503.586657,99.7333184 505.48,102.72 L502.28,104.88 C500.253323,101.54665 497.560017,97.946686 494.2,94.08 L497.32,92.12 Z" id="羽乐圈赛事用户体验中心"></path>
                </g>
                <g id="Logo" transform="translate(131.000000, 0.000000)">
                    <rect id="tab_icon_le" x="0" y="0" width="256" height="256"></rect>
                    <path d="M127.999844,206.450657 L73.9583099,234.868866 C59.5187303,242.462044 50.0481634,235.583173 52.8064217,219.497391 L63.1274363,159.306658 L19.406917,116.679344 C7.72505167,105.289577 11.3390939,94.1546591 27.4862193,91.8077751 L87.906491,83.0260655 L114.927258,28.2627277 C122.147048,13.6302863 133.851216,13.6273998 141.07243,28.2627277 L168.093197,83.0260655 L228.513468,91.8077751 C244.657409,94.1541962 248.27694,105.28733 236.592771,116.679344 L192.872251,159.306658 L127.999844,206.450657 Z" id="Star-3" fill="#FFFFFF"></path>
                    <g id="icon" transform="translate(154.051019, 159.416146) rotate(-75.000000) translate(-154.051019, -159.416146) translate(88.551019, 92.416146)" stroke="#FFFFFF" stroke-linecap="round" stroke-linejoin="round">
                        <path d="M56.2540286,113.940416 L44.8153338,125.578325 C34.574003,136.000333 17.9725301,135.995701 7.73119925,125.573693 C-2.51013164,115.156317 -2.512408,98.2657163 7.73119925,87.8437083 L19.1676177,76.2081154" id="Stroke-1" stroke-width="14.7692308" fill="#58C34E"></path>
                        <path d="M19.1676177,76.2081154 L54.0251814,4.07145234 C55.2687117,1.49800439 58.5396758,-0.0473005253 61.2859432,0.765301752 C61.2859432,0.765301752 79.8552997,3.74736795 103.663719,27.9727465 C127.474415,52.195809 130.431452,71.1728289 130.431452,71.1728289 C131.151799,73.9409499 129.657952,77.2242593 127.099367,78.5040462 L56.2540286,113.940416 L19.1676177,76.2081154 Z" id="Stroke-3" stroke-width="14.7692308" fill="#5AC44E"></path>
                        <path d="M91.0129391,50.4603061 C99.3626748,58.9546471 99.2274755,62.4649718 99.2274755,62.4649718 C100.12744,65.1722653 98.7800044,68.4058628 96.2464057,69.6731521 L74.3877052,80.6067296" id="Stroke-3" stroke-width="10"></path>
                    </g>
                </g>
            </g>
        </g>
    </g>
</svg>